<svg width="18" height="18" viewBox="0 0 18 18" fill="none" xmlns="http://www.w3.org/2000/svg">
<g clip-path="url(#clip0)">
<path d="M0.75 10.5C0.75 12.5711 2.42893 14.25 4.5 14.25H14.25C15.9069 14.25 17.25 12.9069 17.25 11.25C17.25 9.59315 15.9069 8.25 14.25 8.25C13.9907 8.25 13.739 8.2829 13.499 8.34476C13.4997 8.31326 13.5 8.28167 13.5 8.25C13.5 5.76472 11.4853 3.75 9 3.75C7.03753 3.75 5.36847 5.00623 4.7531 6.75841C4.66945 6.75283 4.58506 6.75 4.5 6.75C2.42893 6.75 0.75 8.42893 0.75 10.5Z" stroke="white" stroke-width="2"/>
</g>
<defs>
<clipPath id="clip0">
<rect width="18" height="18" fill="white"/>
</clipPath>
</defs>
</svg>
