<svg width="18" height="18" viewBox="0 0 18 18" fill="none" xmlns="http://www.w3.org/2000/svg">
<path fill-rule="evenodd" clip-rule="evenodd" d="M8.1 10.5773L6.6364 9.1137C6.28492 8.76223 5.71508 8.76223 5.3636 9.1137C5.01213 9.46517 5.01213 10.035 5.3636 10.3865L8.3636 13.3865C8.53239 13.5553 8.7613 13.6501 9 13.6501C9.23869 13.6501 9.46761 13.5553 9.6364 13.3865L12.6364 10.3865C12.9879 10.035 12.9879 9.46517 12.6364 9.1137C12.2849 8.76223 11.7151 8.76223 11.3636 9.1137L9.9 10.5773V5.2501H12C13.6569 5.2501 15 6.59324 15 8.2501V13.5001C15 15.157 13.6569 16.5001 12 16.5001H6C4.34315 16.5001 3 15.157 3 13.5001V8.2501C3 6.59324 4.34315 5.2501 6 5.2501H8.1V10.5773ZM8.1 5.2501V2.2501C8.1 1.75304 8.50294 1.3501 9 1.3501C9.49706 1.3501 9.9 1.75304 9.9 2.2501V5.2501H8.1Z" fill="white"/>
</svg>
