<svg width="18" height="18" viewBox="0 0 18 18" fill="none" xmlns="http://www.w3.org/2000/svg">
<path d="M5.73787 8.3056L5.73788 8.3056C5.89454 8.41388 6.06388 8.4702 6.22036 8.49031C7.1958 8.61575 8.02839 8.32305 8.67313 7.76807C9.28697 7.23968 9.69051 6.51143 9.95472 5.79145C10.2681 4.93731 10.4272 3.97973 10.4662 3.10557C12.2375 4.1875 14.375 6.45937 14.375 10.3125C14.375 13.1495 11.9969 15.5 9 15.5C6.00312 15.5 3.625 13.1495 3.625 10.3125C3.625 9.05984 4.08548 7.90546 4.85966 7.00415C4.85983 7.0047 4.86 7.00526 4.86017 7.00581C5.01157 7.49631 5.27415 7.9851 5.73787 8.3056Z" stroke="white" stroke-width="2"/>
</svg>
