<svg width="16" height="16" viewBox="0 0 16 16" fill="none" xmlns="http://www.w3.org/2000/svg">
<path d="M8.00003 0C3.5823 0 0 3.67233 0 8.20251C0 11.8267 2.29225 14.9013 5.47093 15.9859C5.87073 16.0618 6.01754 15.808 6.01754 15.5913C6.01754 15.3957 6.01008 14.7495 6.00669 14.0642C3.78101 14.5603 3.31138 13.0964 3.31138 13.0964C2.94747 12.1483 2.42313 11.8962 2.42313 11.8962C1.69732 11.3871 2.47784 11.3975 2.47784 11.3975C3.2812 11.4554 3.70421 12.2428 3.70421 12.2428C4.41773 13.4968 5.57571 13.1343 6.03223 12.9247C6.104 12.3945 6.31137 12.0327 6.54013 11.8279C4.76325 11.6204 2.89527 10.9171 2.89527 7.77413C2.89527 6.87865 3.20779 6.14688 3.71959 5.57247C3.63651 5.36584 3.3627 4.5316 3.79707 3.40175C3.79707 3.40175 4.46886 3.18129 5.99765 4.24256C6.63575 4.06076 7.32015 3.96967 8.00003 3.96658C8.67991 3.96967 9.36481 4.06076 10.0042 4.24256C11.5311 3.18129 12.202 3.40175 12.202 3.40175C12.6374 4.5316 12.3635 5.36584 12.2804 5.57247C12.7933 6.14688 13.1037 6.87858 13.1037 7.77413C13.1037 10.9245 11.2322 11.6183 9.45084 11.8213C9.73776 12.0759 9.99343 12.5751 9.99343 13.3403C9.99343 14.4378 9.98415 15.3211 9.98415 15.5913C9.98415 15.8096 10.1281 16.0654 10.5337 15.9848C13.7106 14.899 16 11.8254 16 8.20251C16 3.67233 12.4182 0 8.00003 0Z" fill="white"/>
</svg>
